<svg xmlns="http://www.w3.org/2000/svg" viewBox="0 0 128 128">
  <defs>
    <linearGradient id="gradient" x1="0%" y1="0%" x2="100%" y2="100%">
      <stop offset="0%" stop-color="#5cb9ff" />
      <stop offset="100%" stop-color="#3a95e4" />
    </linearGradient>
    <filter id="glow" x="-30%" y="-30%" width="160%" height="160%">
      <feGaussianBlur in="SourceAlpha" stdDeviation="6" />
      <feOffset dx="0" dy="0" result="offsetblur" />
      <feComponentTransfer>
        <feFuncA type="linear" slope="0.5" />
      </feComponentTransfer>
      <feFlood flood-color="#5cb9ff" result="glowColor" />
      <feComposite in="glowColor" in2="offsetblur" operator="in" result="softGlow" />
      <feMerge>
        <feMergeNode in="softGlow" />
        <feMergeNode in="SourceGraphic" />
      </feMerge>
    </filter>
  </defs>
  
  <!-- Background Circle -->
  <circle cx="64" cy="64" r="60" fill="url(#gradient)" filter="url(#glow)" />
  
  <!-- Mouse Cursor Icon -->
  <g transform="translate(36, 36) scale(0.55)" fill="#ffffff">
    <path d="M32,1.8c-1,0.4-1.9,1.2-2.4,2.2c-0.4,0.7-0.4,1.2-0.4,27.5c0,26.3,0,26.8,0.4,27.5c0.5,1,1.4,1.8,2.4,2.2c0.7,0.3,1,0.3,3.3,0.3c2.3,0,2.6,0,3.3-0.3c1-0.4,1.9-1.2,2.4-2.2c0.4-0.7,0.4-1.2,0.4-27.5c0-26.3,0-26.8-0.4-27.5c-0.5-1-1.4-1.8-2.4-2.2c-0.7-0.3-1-0.3-3.3-0.3C33,1.5,32.7,1.5,32,1.8z"/>
    <path d="M56.2,16.7c-1.1,0.5-2,1.5-2.4,2.6c-0.2,0.6-0.3,1.4-0.3,2.9c0,1.9,0,2.1,0.5,3.2c0.5,1.3,1.6,2.3,3,2.9c0.5,0.2,1.3,0.3,3.1,0.3c2.1,0,2.5,0,3.2-0.3c1.1-0.5,2-1.5,2.4-2.6c0.2-0.6,0.3-1.4,0.3-2.9c0-1.9,0-2.1-0.5-3.2c-0.5-1.3-1.6-2.3-3-2.9c-0.5-0.2-1.3-0.3-3.1-0.3C57.3,16.4,56.9,16.4,56.2,16.7z"/>
  </g>
</svg> 